<mxfile host="app.diagrams.net" modified="2023-09-06T06:18:53.286Z" agent="Mozilla/5.0 (Macintosh; Intel Mac OS X 10_15_7) AppleWebKit/537.36 (KHTML, like Gecko) Chrome/116.0.0.0 Safari/537.36" version="21.7.1" etag="z8tsGiGU6_7AVLdViupH" type="github">
  <diagram name="ページ1" id="hNK--PpP0jHE35OOM6K5">
    <mxGraphModel>
      <root>
        <mxCell id="0" />
        <mxCell id="1" parent="0" />
      </root>
    </mxGraphModel>
  </diagram>
</mxfile>
